<?xml version="1.0" encoding="utf-8"?>
<svg width="1000" height="1000" viewBox="0 0 1000 1000" xmlns="http://www.w3.org/2000/svg">
  <defs>
    <linearGradient id="goldGrad" x1="0" y1="0" x2="0" y2="1">
      <stop offset="0" stop-color="#e8c97a"/>
      <stop offset="0.4" stop-color="#c8912a"/>
      <stop offset="1" stop-color="#7a4d10"/>
    </linearGradient>
    <linearGradient id="emberGrad" x1="0" y1="0" x2="0" y2="1">
      <stop offset="0" stop-color="#e07830"/>
      <stop offset="0.55" stop-color="#b04818"/>
      <stop offset="1" stop-color="#6a2808"/>
    </linearGradient>
    <radialGradient id="bgRadial" cx="50%" cy="50%" r="50%">
      <stop offset="0" stop-color="#2a1f14"/>
      <stop offset="1" stop-color="#0a0806"/>
    </radialGradient>
    <filter id="softglow">
      <feGaussianBlur stdDeviation="3" result="blur"/>
      <feMerge>
        <feMergeNode in="blur"/>
        <feMergeNode in="SourceGraphic"/>
      </feMerge>
    </filter>
    <path id="topArc" d="M 160,500 A 340,340 0 0,1 840,500" fill="none"/>
    <path id="bottomArc" d="M 200,580 A 310,310 0 0,0 800,580" fill="none"/>
  </defs>
  <circle cx="500" cy="500" r="470" fill="url(#bgRadial)"/>
  <circle cx="500" cy="500" r="468" fill="none" stroke="#c8912a" stroke-width="1.2"/>
  <circle cx="500" cy="500" r="455" fill="none" stroke="#7a5518" stroke-width="0.6"/>
  <g id="ticks" stroke="#c8912a">
    <g>
      <line x1="500" y1="32" x2="500" y2="57" stroke-width="1.5"/>
      <line x1="500" y1="968" x2="500" y2="943" stroke-width="1.5"/>
      <line x1="32" y1="500" x2="57" y2="500" stroke-width="1.5"/>
      <line x1="968" y1="500" x2="943" y2="500" stroke-width="1.5"/>
    </g>
    <g stroke="#7a5518" stroke-width="0.8">
      <line x1="500" y1="32" x2="500" y2="50" transform="rotate(6 500 500)"/>
      <line x1="500" y1="32" x2="500" y2="50" transform="rotate(12 500 500)"/>
      <line x1="500" y1="32" x2="500" y2="50" transform="rotate(18 500 500)"/>
      <line x1="500" y1="32" x2="500" y2="50" transform="rotate(24 500 500)"/>
      <line x1="500" y1="32" x2="500" y2="50" transform="rotate(30 500 500)"/>
      <line x1="500" y1="32" x2="500" y2="50" transform="rotate(36 500 500)"/>
      <line x1="500" y1="32" x2="500" y2="50" transform="rotate(42 500 500)"/>
      <line x1="500" y1="32" x2="500" y2="50" transform="rotate(48 500 500)"/>
      <line x1="500" y1="32" x2="500" y2="50" transform="rotate(54 500 500)"/>
      <line x1="500" y1="32" x2="500" y2="50" transform="rotate(60 500 500)"/>
      <line x1="500" y1="32" x2="500" y2="50" transform="rotate(66 500 500)"/>
      <line x1="500" y1="32" x2="500" y2="50" transform="rotate(72 500 500)"/>
      <line x1="500" y1="32" x2="500" y2="50" transform="rotate(78 500 500)"/>
      <line x1="500" y1="32" x2="500" y2="50" transform="rotate(84 500 500)"/>
      <line x1="500" y1="32" x2="500" y2="50" transform="rotate(96 500 500)"/>
      <line x1="500" y1="32" x2="500" y2="50" transform="rotate(102 500 500)"/>
      <line x1="500" y1="32" x2="500" y2="50" transform="rotate(108 500 500)"/>
      <line x1="500" y1="32" x2="500" y2="50" transform="rotate(114 500 500)"/>
      <line x1="500" y1="32" x2="500" y2="50" transform="rotate(120 500 500)"/>
      <line x1="500" y1="32" x2="500" y2="50" transform="rotate(126 500 500)"/>
      <line x1="500" y1="32" x2="500" y2="50" transform="rotate(132 500 500)"/>
      <line x1="500" y1="32" x2="500" y2="50" transform="rotate(138 500 500)"/>
      <line x1="500" y1="32" x2="500" y2="50" transform="rotate(144 500 500)"/>
      <line x1="500" y1="32" x2="500" y2="50" transform="rotate(150 500 500)"/>
      <line x1="500" y1="32" x2="500" y2="50" transform="rotate(156 500 500)"/>
      <line x1="500" y1="32" x2="500" y2="50" transform="rotate(162 500 500)"/>
      <line x1="500" y1="32" x2="500" y2="50" transform="rotate(168 500 500)"/>
      <line x1="500" y1="32" x2="500" y2="50" transform="rotate(174 500 500)"/>
      <line x1="500" y1="32" x2="500" y2="50" transform="rotate(186 500 500)"/>
      <line x1="500" y1="32" x2="500" y2="50" transform="rotate(192 500 500)"/>
      <line x1="500" y1="32" x2="500" y2="50" transform="rotate(198 500 500)"/>
      <line x1="500" y1="32" x2="500" y2="50" transform="rotate(204 500 500)"/>
      <line x1="500" y1="32" x2="500" y2="50" transform="rotate(210 500 500)"/>
      <line x1="500" y1="32" x2="500" y2="50" transform="rotate(216 500 500)"/>
      <line x1="500" y1="32" x2="500" y2="50" transform="rotate(222 500 500)"/>
      <line x1="500" y1="32" x2="500" y2="50" transform="rotate(228 500 500)"/>
      <line x1="500" y1="32" x2="500" y2="50" transform="rotate(234 500 500)"/>
      <line x1="500" y1="32" x2="500" y2="50" transform="rotate(240 500 500)"/>
      <line x1="500" y1="32" x2="500" y2="50" transform="rotate(246 500 500)"/>
      <line x1="500" y1="32" x2="500" y2="50" transform="rotate(252 500 500)"/>
      <line x1="500" y1="32" x2="500" y2="50" transform="rotate(258 500 500)"/>
      <line x1="500" y1="32" x2="500" y2="50" transform="rotate(264 500 500)"/>
      <line x1="500" y1="32" x2="500" y2="50" transform="rotate(276 500 500)"/>
      <line x1="500" y1="32" x2="500" y2="50" transform="rotate(282 500 500)"/>
      <line x1="500" y1="32" x2="500" y2="50" transform="rotate(288 500 500)"/>
      <line x1="500" y1="32" x2="500" y2="50" transform="rotate(294 500 500)"/>
      <line x1="500" y1="32" x2="500" y2="50" transform="rotate(300 500 500)"/>
      <line x1="500" y1="32" x2="500" y2="50" transform="rotate(306 500 500)"/>
      <line x1="500" y1="32" x2="500" y2="50" transform="rotate(312 500 500)"/>
      <line x1="500" y1="32" x2="500" y2="50" transform="rotate(318 500 500)"/>
      <line x1="500" y1="32" x2="500" y2="50" transform="rotate(324 500 500)"/>
      <line x1="500" y1="32" x2="500" y2="50" transform="rotate(330 500 500)"/>
      <line x1="500" y1="32" x2="500" y2="50" transform="rotate(336 500 500)"/>
      <line x1="500" y1="32" x2="500" y2="50" transform="rotate(342 500 500)"/>
      <line x1="500" y1="32" x2="500" y2="50" transform="rotate(348 500 500)"/>
      <line x1="500" y1="32" x2="500" y2="50" transform="rotate(354 500 500)"/>
    </g>
    <g stroke="#c8912a" stroke-width="1.2">
      <line x1="500" y1="32" x2="500" y2="55" transform="rotate(45 500 500)"/>
      <line x1="500" y1="32" x2="500" y2="55" transform="rotate(135 500 500)"/>
      <line x1="500" y1="32" x2="500" y2="55" transform="rotate(225 500 500)"/>
      <line x1="500" y1="32" x2="500" y2="55" transform="rotate(315 500 500)"/>
    </g>
  </g>
  <circle cx="500" cy="500" r="420" fill="none" stroke="#c8912a" stroke-width="0.8"/>
  <circle cx="500" cy="500" r="408" fill="none" stroke="#3a2810" stroke-width="0.5"/>
  <line x1="80" y1="500" x2="920" y2="500" stroke="#3a2810" stroke-width="0.7"/>
  <line x1="500" y1="80" x2="500" y2="920" stroke="#3a2810" stroke-width="0.7"/>
  <path id="topTextPath" d="M 195,500 A 305,305 0 0,1 805,500" fill="none"/>
  <text font-family="Palatino Linotype, Palatino, Georgia, serif" font-size="28" letter-spacing="14" fill="#c8912a" font-weight="400" style="white-space: pre;">
    <textPath href="#topTextPath" startOffset="50%" text-anchor="middle">TRAVEL &amp; JOURNEYS</textPath>
  </text>
  <path id="bottomTextPath" d="M 205,510 A 295,295 0 0,0 795,510" fill="none"/>
  <text font-family="Palatino Linotype, Palatino, Georgia, serif" font-size="24" letter-spacing="13" fill="#7a5518" font-weight="400" style="white-space: pre;">
    <textPath href="#bottomTextPath" startOffset="50%" text-anchor="middle">EXPLORE THE WORLD</textPath>
  </text>
  <g transform="translate(500, 330)" filter="url(#softglow)">
    <circle cx="0" cy="0" r="82" fill="none" stroke="#7a5518" stroke-width="1.2"/>
    <circle cx="0" cy="0" r="68" fill="none" stroke="#c8912a" stroke-width="0.7"/>
    <line x1="0" y1="-82" x2="0" y2="-68" stroke="#c8912a" stroke-width="2"/>
    <line x1="0" y1="82" x2="0" y2="68" stroke="#c8912a" stroke-width="2"/>
    <line x1="-82" y1="0" x2="-68" y2="0" stroke="#c8912a" stroke-width="2"/>
    <line x1="82" y1="0" x2="68" y2="0" stroke="#c8912a" stroke-width="2"/>
    <line x1="58" y1="-58" x2="48" y2="-48" stroke="#7a5518" stroke-width="1.2"/>
    <line x1="-58" y1="-58" x2="-48" y2="-48" stroke="#7a5518" stroke-width="1.2"/>
    <line x1="58" y1="58" x2="48" y2="48" stroke="#7a5518" stroke-width="1.2"/>
    <line x1="-58" y1="58" x2="-48" y2="48" stroke="#7a5518" stroke-width="1.2"/>
    <text x="0" y="-90" text-anchor="middle" font-family="Palatino Linotype, Georgia, serif" font-size="20" fill="#c8912a" font-weight="600" style="white-space: pre;">N</text>
    <text x="0" y="110" text-anchor="middle" font-family="Palatino Linotype, Georgia, serif" font-size="18" fill="#7a5518" style="white-space: pre;">S</text>
    <text x="98" y="7" text-anchor="middle" font-family="Palatino Linotype, Georgia, serif" font-size="18" fill="#7a5518" style="white-space: pre;">E</text>
    <text x="-98" y="7" text-anchor="middle" font-family="Palatino Linotype, Georgia, serif" font-size="18" fill="#7a5518" style="white-space: pre;">W</text>
    <polygon points="0,-60 9,0 0,11 -9,0" fill="url(#goldGrad)"/>
    <polygon points="0,60 7,0 0,-11 -7,0" fill="#3a2810"/>
    <polygon points="60,0 0,7 -11,0 0,-7" fill="#7a4d10" opacity="0.7"/>
    <polygon points="-60,0 0,7 11,0 0,-7" fill="#7a4d10" opacity="0.7"/>
    <circle cx="0" cy="0" r="7" fill="#e8c97a"/>
    <circle cx="0" cy="0" r="3" fill="#1a1410"/>
  </g>
  <polygon points="500,455 508,468 500,481 492,468" fill="#c8912a"/>
  <line x1="140" y1="468" x2="478" y2="468" stroke="#3a2810" stroke-width="0.8"/>
  <line x1="522" y1="468" x2="860" y2="468" stroke="#3a2810" stroke-width="0.8"/>
  <text x="500" y="548" text-anchor="middle" font-family="Palatino Linotype, Palatino, Book Antiqua, Georgia, serif" font-size="78" font-weight="400" letter-spacing="4" fill="url(#goldGrad)" filter="url(#softglow)" style="white-space: pre;">Adar<tspan fill="url(#emberGrad)">dour</tspan><tspan fill="url(#goldGrad)"> Tours</tspan></text>
  <line x1="165" y1="582" x2="835" y2="582" stroke="#3a2810" stroke-width="0.8"/>
  <polygon points="500,574 509,582 500,590 491,582" fill="#c8912a"/>
  <polygon points="265,574 273,582 265,590 257,582" fill="#7a5518"/>
  <polygon points="735,574 743,582 735,590 727,582" fill="#7a5518"/>
  <line x1="163" y1="475" x2="163" y2="582" stroke="#c8912a" stroke-width="1.2"/>
  <line x1="837" y1="475" x2="837" y2="582" stroke="#c8912a" stroke-width="1.2"/>
</svg>